<mxfile host="app.diagrams.net" modified="2023-12-17T10:05:51.726Z" agent="Mozilla/5.0 (Macintosh; Intel Mac OS X 10_15_7) AppleWebKit/537.36 (KHTML, like Gecko) Chrome/119.0.0.0 Safari/537.36 OPR/105.0.0.0" version="22.1.11" etag="YUVnp2G-6_r5zIrjA4g9" type="github">
  <diagram name="Page-1" id="LmZVH0HZA_JCahwHw8qR">
    <mxGraphModel>
      <root>
        <mxCell id="0" />
        <mxCell id="1" parent="0" />
      </root>
    </mxGraphModel>
  </diagram>
</mxfile>
